<svg width="40" height="11" viewBox="0 0 40 11" fill="none" xmlns="http://www.w3.org/2000/svg">
<path d="M6.43359 10L5.5957 7.62109H2.32031L1.48242 10H0L3.1875 1.39844H4.74609L7.92773 10H6.43359ZM5.23242 6.41406L4.41797 4.07031C4.38672 3.96875 4.3418 3.82617 4.2832 3.64258C4.22461 3.45508 4.16602 3.26562 4.10742 3.07422C4.04883 2.87891 4 2.71484 3.96094 2.58203C3.92188 2.74219 3.87305 2.92188 3.81445 3.12109C3.75977 3.31641 3.70508 3.5 3.65039 3.67188C3.59961 3.84375 3.56055 3.97656 3.5332 4.07031L2.71289 6.41406H5.23242ZM11.4949 0.882812V3.08008C11.4949 3.33398 11.4871 3.58398 11.4715 3.83008C11.4598 4.07227 11.448 4.26172 11.4363 4.39844H11.4949C11.6707 4.11719 11.9148 3.88086 12.2273 3.68945C12.5437 3.49414 12.948 3.39648 13.4402 3.39648C14.2098 3.39648 14.8289 3.67969 15.2977 4.24609C15.7664 4.80859 16.0008 5.64258 16.0008 6.74805C16.0008 7.48242 15.8934 8.09961 15.6785 8.59961C15.4637 9.09961 15.1609 9.47852 14.7703 9.73633C14.3836 9.99023 13.9285 10.1172 13.4051 10.1172C12.9129 10.1172 12.5145 10.0273 12.2098 9.84766C11.909 9.66406 11.6727 9.45117 11.5008 9.20898H11.4012L11.1492 10H10.118V0.882812H11.4949ZM13.077 4.51562C12.6863 4.51562 12.3758 4.59375 12.1453 4.75C11.9187 4.90625 11.7547 5.14062 11.6531 5.45312C11.5516 5.76172 11.4988 6.1543 11.4949 6.63086V6.75391C11.4949 7.47656 11.6082 8.0293 11.8348 8.41211C12.0652 8.79492 12.4832 8.98633 13.0887 8.98633C13.5691 8.98633 13.9383 8.79297 14.1961 8.40625C14.4539 8.01562 14.5828 7.45703 14.5828 6.73047C14.5828 5.99609 14.4539 5.44336 14.1961 5.07227C13.9422 4.70117 13.5691 4.51562 13.077 4.51562ZM24.5367 6.74219C24.5367 7.28125 24.4664 7.75977 24.3258 8.17773C24.1852 8.5957 23.9801 8.94922 23.7105 9.23828C23.441 9.52344 23.1168 9.74219 22.7379 9.89453C22.359 10.043 21.9312 10.1172 21.4547 10.1172C21.0094 10.1172 20.6012 10.043 20.2301 9.89453C19.859 9.74219 19.5367 9.52344 19.2633 9.23828C18.9937 8.94922 18.7848 8.5957 18.6363 8.17773C18.4879 7.75977 18.4137 7.28125 18.4137 6.74219C18.4137 6.02734 18.5367 5.42188 18.7828 4.92578C19.0328 4.42578 19.3883 4.04492 19.8492 3.7832C20.3102 3.52148 20.859 3.39062 21.4957 3.39062C22.0934 3.39062 22.6207 3.52148 23.0777 3.7832C23.5348 4.04492 23.8922 4.42578 24.15 4.92578C24.4078 5.42578 24.5367 6.03125 24.5367 6.74219ZM19.8316 6.74219C19.8316 7.21484 19.8883 7.61914 20.0016 7.95508C20.1187 8.29102 20.2984 8.54883 20.5406 8.72852C20.7828 8.9043 21.0953 8.99219 21.4781 8.99219C21.8609 8.99219 22.1734 8.9043 22.4156 8.72852C22.6578 8.54883 22.8355 8.29102 22.9488 7.95508C23.0621 7.61914 23.1187 7.21484 23.1187 6.74219C23.1187 6.26953 23.0621 5.86914 22.9488 5.54102C22.8355 5.20898 22.6578 4.95703 22.4156 4.78516C22.1734 4.60938 21.859 4.52148 21.4723 4.52148C20.902 4.52148 20.4859 4.71289 20.2242 5.0957C19.9625 5.47852 19.8316 6.02734 19.8316 6.74219ZM32.973 3.51367V10H31.8891L31.7016 9.12695H31.6254C31.4887 9.34961 31.3148 9.53516 31.1039 9.68359C30.893 9.82812 30.6586 9.93555 30.4008 10.0059C30.143 10.0801 29.8715 10.1172 29.5863 10.1172C29.098 10.1172 28.6801 10.0352 28.3324 9.87109C27.9887 9.70312 27.725 9.44531 27.5414 9.09766C27.3578 8.75 27.266 8.30078 27.266 7.75V3.51367H28.6488V7.49219C28.6488 7.99609 28.7504 8.37305 28.9535 8.62305C29.1605 8.87305 29.4809 8.99805 29.9145 8.99805C30.3324 8.99805 30.6645 8.91211 30.9105 8.74023C31.1566 8.56836 31.3305 8.31445 31.432 7.97852C31.5375 7.64258 31.5902 7.23047 31.5902 6.74219V3.51367H32.973ZM38.5617 9.00391C38.7414 9.00391 38.9191 8.98828 39.0949 8.95703C39.2707 8.92188 39.4309 8.88086 39.5754 8.83398V9.87695C39.423 9.94336 39.2258 10 38.9836 10.0469C38.7414 10.0938 38.4895 10.1172 38.2277 10.1172C37.8605 10.1172 37.5305 10.0566 37.2375 9.93555C36.9445 9.81055 36.7121 9.59766 36.5402 9.29688C36.3684 8.99609 36.2824 8.58008 36.2824 8.04883V4.5625H35.3977V3.94727L36.3469 3.46094L36.798 2.07227H37.6652V3.51367H39.5227V4.5625H37.6652V8.03125C37.6652 8.35938 37.7473 8.60352 37.9113 8.76367C38.0754 8.92383 38.2922 9.00391 38.5617 9.00391Z" fill="#FF6C00"/>
</svg>
